PathFileType	4	(X/Y/Z)	C:/Users/opensim2020/Desktop/walking_exp_matlab/subject03_walking15_straight_02.trc																																																																																																																																											
DataRate	CameraRate	NumFrames	NumMarkers	Units	OrigDataRate	OrigDataStartFrame	OrigNumFrames																																																																																																																																							
100	100	7	47	mm	100	1122	149																																																																																																																																							
Frame#	Time	LFHD			RFHD			LBHD			RBHD			C7			T10			CLAV			STRN			RBAK			LSHO			LUPA			LELB			LFRM			LWRA			LWRB			LFIN			RSHO			RUPA			RELB			RFRM			RWRA			RWRB			RFIN			LASI			RASI			LPSI			RPSI			LTHI			LKNE			LTIB			LANK			LHEE			LTOE			RTHI			RKNE			RTIB			RANK			RHEE			RTOE			*39			*40			*41			*42			*43			*44			*45			*46		
		X1	Y1	Z1	X2	Y2	Z2	X3	Y3	Z3	X4	Y4	Z4	X5	Y5	Z5	X6	Y6	Z6	X7	Y7	Z7	X8	Y8	Z8	X9	Y9	Z9	X10	Y10	Z10	X11	Y11	Z11	X12	Y12	Z12	X13	Y13	Z13	X14	Y14	Z14	X15	Y15	Z15	X16	Y16	Z16	X17	Y17	Z17	X18	Y18	Z18	X19	Y19	Z19	X20	Y20	Z20	X21	Y21	Z21	X22	Y22	Z22	X23	Y23	Z23	X24	Y24	Z24	X25	Y25	Z25	X26	Y26	Z26	X27	Y27	Z27	X28	Y28	Z28	X29	Y29	Z29	X30	Y30	Z30	X31	Y31	Z31	X32	Y32	Z32	X33	Y33	Z33	X34	Y34	Z34	X35	Y35	Z35	X36	Y36	Z36	X37	Y37	Z37	X38	Y38	Z38	X39	Y39	Z39	X40	Y40	Z40	X41	Y41	Z41	X42	Y42	Z42	X43	Y43	Z43	X44	Y44	Z44	X45	Y45	Z45	X46	Y46	Z46	X47	Y47	Z47
																																																																																																																																														
38	0.37	-504.92749	1589.21423	914.12476	-505.89127	1605.90308	1045.87671	-632.94183	1546.34192	922.01556	-628.89313	1562.08997	1051.95801	-661.19824	1393.20679	992.68207	-706.39294	1082.4928	1001.74585	-539.12885	1315.49243	993.52325	-501.2785	1148.70728	993.27118	-713.48206	1223.36304	1099.36206	-589.16168	1349.61218	836.44934	-640.60535	1157.99744	765.73785	-663.96112	1037.20044	751.24609	-683.50781	907.80524	743.83423	-713.62573	789.35205	766.61536	-728.52527	806.05762	713.50439	-772.77417	728.32941	724.76678	-580.27399	1346.875	1153.13892	-557.56946	1133.47632	1239.50952	-524.75891	1027.66736	1256.69702	-463.69803	906.50055	1254.50317	-402.45465	833.16681	1215.026	-428.78516	812.93781	1256.60559	-372.93591	767.24298	1247.646	-531.24524	923.71631	890.07202	-548.06323	910.80206	1124.89233	-698.0556	937.4339	923.54504	-705.77643	942.72198	1074.64111	-503.5769	632.92407	836.1875	-439.47263	472.60043	879.7774	-449.51794	272.1582	877.15601	-429.77341	63.80232	915.60449	-469.17795	30.24532	951.30157	-279.43176	33.80585	942.12701	-649.27081	623.83826	1171.15686	-672.83026	443.30353	1150.74158	-818.1106	309.30002	1156.63757	-969.2807	154.38824	1116.69592	-1020.85919	158.8662	1065.11926	-893.36725	30.41246	1095.13159	-588.01074	1654.96252	956.65741	NaN	NaN	NaN	NaN	NaN	NaN	NaN	NaN	NaN	NaN	NaN	NaN	NaN	NaN	NaN	NaN	NaN	NaN	NaN	NaN	NaN
39	0.38	-490.22678	1590.02832	912.84393	-491.2023	1606.7533	1044.58386	-618.3371	1547.33948	920.79364	-614.08868	1563.07385	1050.64014	-646.22748	1394.23877	991.11035	-691.34082	1083.28943	1000.58862	-524.37897	1316.72437	992.54108	-485.85889	1150.08704	992.40833	-699.04944	1224.05786	1097.69934	-573.32843	1350.59265	835.26355	-623.17694	1158.57153	764.3175	-646.16205	1037.69092	750.20447	-665.47693	908.2171	743.13934	-696.7735	789.46271	766.52277	-709.81653	806.31476	712.45538	-756.07074	729.24982	724.31274	-566.13361	1347.77454	1152.02356	-545.05096	1133.82947	1238.02417	-512.82007	1027.56226	1255.11609	-453.42606	905.51483	1253.30566	-392.87448	831.19073	1214.25928	-419.82535	811.40955	1255.77795	-364.97815	764.50732	1247.12817	-515.75159	925.46155	888.99896	-532.09326	910.92053	1123.29846	-682.43774	939.17456	923.26178	-689.83539	942.80237	1074.37573	-489.77365	634.81683	834.07684	-424.88107	474.10901	878.74158	-439.82465	272.8251	874.75922	-428.51553	63.99944	915.72894	-468.76184	30.44472	951.02234	-278.42694	32.76626	943.34943	-628.59094	621.91956	1170.56152	-647.88214	441.16336	1151.57971	-797.09863	311.88135	1156.32739	-952.96332	162.82762	1115.42224	-1002.26447	172.12578	1062.55981	-892.71063	31.01208	1093.91406	-573.28558	1655.68591	955.08069	NaN	NaN	NaN	NaN	NaN	NaN	NaN	NaN	NaN	NaN	NaN	NaN	NaN	NaN	NaN	NaN	NaN	NaN	NaN	NaN	NaN
40	0.39	-475.67996	1590.6792	911.69818	-476.5929	1607.46143	1043.41052	-603.75208	1548.15613	919.67102	-599.6366	1563.99878	1049.53406	-631.47784	1395.20789	989.70715	-676.39545	1083.94812	999.41614	-509.70654	1317.79456	991.70074	-470.54135	1151.39771	991.73517	-684.69293	1224.83057	1096.22473	-557.61041	1351.72607	834.32971	-605.51947	1159.34583	763.00165	-628.03864	1038.33594	749.32507	-646.70441	908.83533	742.52362	-678.00812	789.99988	765.91101	-690.22046	806.38385	711.62396	-737.84363	729.96655	723.55609	-552.06976	1348.60278	1150.86829	-532.5719	1134.32776	1236.50183	-501.28638	1027.6582	1253.50928	-443.70157	904.53204	1252.09827	-384.00443	829.09613	1213.6095	-411.55725	809.94269	1254.93359	-357.91159	761.60291	1246.56165	-500.41013	927.46021	887.83246	-516.46564	911.31555	1121.76526	-667.3559	940.86115	923.20605	-674.16785	942.87549	1074.15625	-476.64224	636.10468	832.43945	-411.77362	475.05811	877.19867	-431.96194	273.21054	873.85553	-427.91397	64.31934	915.83545	-468.302	30.27803	951.13794	-277.82544	32.1032	944.0318	-607.35535	619.81506	1169.85962	-622.27747	439.00607	1151.26404	-774.60236	314.34979	1155.21741	-934.23975	169.97182	1114.66602	-981.36353	184.74884	1060.57141	-890.59406	32.6746	1092.4071	-558.56885	1656.7196	953.8598	NaN	NaN	NaN	NaN	NaN	NaN	NaN	NaN	NaN	NaN	NaN	NaN	NaN	NaN	NaN	NaN	NaN	NaN	NaN	NaN	NaN
41	0.4	-461.23004	1591.11548	910.57159	-462.07642	1608.07483	1042.28967	-589.37402	1548.81384	918.66132	-585.21625	1564.7959	1048.50342	-617.08282	1395.92188	988.35449	-661.65637	1084.625	998.41748	-495.13168	1318.73999	990.98535	-455.39615	1152.57837	991.21326	-670.56799	1225.59009	1094.90845	-541.88391	1352.87305	833.54419	-587.80762	1160.09692	761.73828	-609.5014	1038.9917	748.49658	-627.3595	909.34711	741.99652	-657.8277	790.73413	764.92004	-669.67883	806.63855	710.59015	-718.16302	730.27655	722.57782	-538.40729	1349.77747	1149.78711	-520.20361	1134.90259	1234.93335	-489.97046	1027.8158	1251.91785	-434.32852	903.63666	1250.93726	-375.75623	826.98639	1212.77136	-403.89572	808.44073	1254.09326	-351.62704	758.67859	1245.99219	-485.96692	929.28656	886.9375	-501.23294	911.85419	1120.4137	-652.61377	942.43866	923.30347	-659.04956	942.93134	1073.97217	-463.91122	636.7337	830.91565	-400.86099	474.59122	875.44684	-425.68069	273.28214	873.04822	-427.64639	64.47668	915.82556	-468.17505	30.27494	951.33191	-277.44437	31.56026	943.38593	-585.89484	617.46643	1169.01587	-596.20911	436.80887	1150.3877	-750.5036	316.22708	1153.90796	-914.30841	176.60887	1113.83936	-960.07574	196.51414	1059.48364	-881.8894	38.00819	1091.53247	-543.82269	1657.34546	952.89178	NaN	NaN	NaN	NaN	NaN	NaN	NaN	NaN	NaN	NaN	NaN	NaN	NaN	NaN	NaN	NaN	NaN	NaN	NaN	NaN	NaN
42	0.41	-446.85071	1591.63818	909.58917	-447.69409	1608.84131	1041.27661	-575.10785	1549.42346	917.77338	-570.88281	1565.65649	1047.64172	-603.05261	1396.45654	987.09692	-647.02722	1085.25098	997.45123	-480.73404	1319.66626	990.43787	-440.6131	1153.64587	990.85632	-656.65607	1226.35486	1093.55359	-526.21082	1353.9574	832.88684	-569.85931	1160.80188	760.62976	-590.6994	1039.50464	747.68103	-607.40619	909.75647	741.42346	-637.37555	790.83429	764.32202	-648.51782	806.4021	709.93103	-697.11151	730.10748	721.38892	-524.92688	1350.75256	1148.76709	-508.0062	1135.43896	1233.40723	-478.91541	1027.97778	1250.3606	-425.42413	902.80902	1249.77307	-367.92984	824.76367	1212.04382	-396.61914	806.88641	1253.38049	-345.74069	755.46741	1245.39221	-471.38568	931.06036	885.76453	-486.29825	912.51672	1119.35278	-638.21082	943.7984	923.32428	-644.39264	942.92761	1073.68872	-452.34494	636.75562	829.50177	-391.67444	473.49115	873.23499	-420.95251	273.03366	871.88483	-427.62695	64.5679	915.70105	-468.31485	30.20047	951.28223	-277.33316	31.24548	943.70068	-564.69836	615.10565	1167.85999	-569.82397	434.71161	1149.04016	-724.95581	317.32678	1152.91614	-893.61829	184.50467	1112.24316	-938.89233	207.37585	1058.03162	-867.65375	45.41254	1091.69885	-529.47729	1657.7345	951.41595	NaN	NaN	NaN	NaN	NaN	NaN	NaN	NaN	NaN	NaN	NaN	NaN	NaN	NaN	NaN	NaN	NaN	NaN	NaN	NaN	NaN
43	0.42	-432.62198	1592.33618	908.64978	-433.31152	1609.88098	1040.35754	-560.85742	1550.26953	916.9975	-556.60028	1566.8009	1046.84253	-589.32849	1397.01611	985.81824	-632.44757	1086.08093	996.52124	-466.55621	1320.68201	990.06268	-426.17166	1154.80164	990.76953	-643.0722	1227.20117	1092.12048	-510.70386	1355.03015	832.31665	-552.0011	1161.41467	759.57257	-571.75897	1039.91748	746.92169	-587.08301	910.0119	740.89069	-615.86548	790.90594	763.70856	-626.578	806.07843	709.18024	-674.72998	729.45776	720.10858	-511.8334	1351.71692	1148.04041	-496.03369	1135.95605	1232.08289	-468.07675	1028.07202	1248.85754	-416.63672	901.84821	1248.65344	-360.56534	822.4754	1211.34607	-389.742	805.37439	1252.6842	-340.39224	752.23444	1244.71179	-456.95673	932.76147	884.75165	-471.75751	913.18573	1118.60681	-623.93451	945.03229	923.1405	-630.05847	942.81921	1073.29932	-442.30838	636.4787	828.20905	-383.75641	471.99854	871.49652	-416.81042	272.68033	870.93347	-427.52609	64.63071	915.54547	-468.46619	30.36248	951.12396	-277.23987	31.00786	943.54657	-543.90277	613.23059	1166.41589	-543.38824	433.01477	1147.1499	-698.4751	317.95355	1151.70105	-872.25458	193.34521	1109.71619	-916.91656	215.77458	1054.45459	-847.88	53.37482	1094.17102	-515.18518	1658.4519	950.3443	NaN	NaN	NaN	NaN	NaN	NaN	NaN	NaN	NaN	NaN	NaN	NaN	NaN	NaN	NaN	NaN	NaN	NaN	NaN	NaN	NaN
44	0.43	-418.31473	1593.24097	907.86102	-419.02249	1611.12524	1039.49829	-546.72882	1551.55359	916.3429	-542.39276	1568.3938	1046.11279	-575.70062	1397.8866	984.58191	-618.00677	1087.1051	995.63489	-452.59967	1321.99451	989.92487	-412.29187	1156.08044	990.83313	-629.72723	1228.17627	1090.62976	-495.23169	1356.02283	831.81451	-533.94379	1161.95728	758.71057	-552.52936	1040.27881	746.14313	-566.21393	910.1734	740.35681	-594.26477	790.54047	763.46283	-603.97412	805.68268	708.50696	-650.98749	728.4491	718.86462	-499.08252	1352.73267	1147.57617	-484.2796	1136.44666	1230.92712	-457.38141	1028.12463	1247.49902	-408.23169	900.92761	1247.63037	-353.57336	820.19006	1210.60583	-383.19693	803.93463	1252.10876	-335.56982	749.03589	1243.88477	-442.729	934.3136	883.89948	-457.6806	913.8902	1118.24011	-609.93079	946.44348	922.81006	-615.88904	942.79431	1072.68835	-433.38263	636.37384	827.20422	-376.68085	470.57303	870.12244	-413.1759	272.44366	869.90051	-427.36411	64.63103	915.53644	-468.65109	30.56993	950.90338	-277.11359	30.75381	943.5531	-523.88751	612.45886	1164.92065	-516.47064	432.02814	1145.47876	-671.54047	319.51584	1149.19507	-849.02466	201.11415	1106.66479	-893.18665	222.04985	1050.40332	-824.62012	60.52368	1095.95056	-501.04553	1659.98083	949.25494	NaN	NaN	NaN	NaN	NaN	NaN	NaN	NaN	NaN	NaN	NaN	NaN	NaN	NaN	NaN	NaN	NaN	NaN	NaN	NaN	NaN
